#!OML:ASF G:\JayActor3\Patient Classification 1\Patient 1\Session 5\male.ASF
:FULLY-SPECIFIED
:DEGREES
871
root 45.2526 16.753 -5.47645 534.475 98.1272 535.478
lowerback -0.242164 0.136462 0.912581
upperback 0.558969 0.188634 -1.24503
thorax 0.715002 0.105026 -1.78493
lowerneck -5.84638 0.439369 1.01201
upperneck 9.31643 0.396171 1.46513
head 4.09154 0.322381 0.332226
rclavicle -1.79008e-014 -1.03368e-014
rhumerus -31.8379 -6.96833 -87.2645
rradius 24.4207
rwrist 5.2148
rhand -20.9964 -21.8312
rfingers 7.12502
rthumb 5.37779 308.257
lclavicle -1.79008e-014 -1.03368e-014
lhumerus -33.4128 19.1524 75.8726
lradius 17.9525
lwrist 11.1628
lhand -17.9677 10.756
lfingers 7.12502
lthumb 8.3015 40.5729
rfemur -5.81632 2.97423 21.3107
rtibia 60.2818
rfoot 3.47395 -13.3761
rtoes 5.08078
lfemur -6.41002 19.706 -22.1739
ltibia 24.0077
lfoot -2.32524 -10.6969
ltoes -18.3822
872
root 45.3666 16.7476 -5.47687 535.286 98.01 536.339
lowerback -0.151016 0.0541548 0.695598
upperback 0.605353 0.0811076 -1.24627
thorax 0.70695 0.0504764 -1.66535
lowerneck -5.82861 0.447512 1.00949
upperneck 9.25502 0.408729 1.45386
head 4.06599 0.326985 0.329128
rclavicle -2.75185e-014 8.74653e-015
rhumerus -31.8044 -6.95302 -87.2768
rradius 24.5748
rwrist 5.05907
rhand -21.0289 -21.3136
rfingers 7.12502
rthumb 5.34641 308.774
lclavicle -2.75185e-014 8.74653e-015
lhumerus -32.9272 18.4761 76.3831
lradius 18.4249
lwrist 11.7577
lhand -18.035 10.76
lfingers 7.12502
lthumb 8.2366 40.5794
rfemur -6.92994 3.14517 21.2095
rtibia 60.7071
rfoot 1.69847 -12.4689
rtoes 3.9448
lfemur -6.03188 19.6202 -22.2048
ltibia 24.2151
lfoot -2.43923 -10.7539
ltoes -18.4322
873
root 45.4787 16.7416 -5.47649 536.356 97.8838 537.446
lowerback -0.0232324 -0.0283951 0.439698
upperback 0.617142 -0.0271874 -1.25439
thorax 0.643734 -0.0051375 -1.53074
lowerneck -5.79535 0.455326 1.00306
upperneck 9.2186 0.42066 1.45306
head 4.04627 0.332031 0.330268
rclavicle 4.27387e-015 2.78299e-015
rhumerus -31.8188 -6.94687 -87.2808
rradius 24.7333
rwrist 4.88812
rhand -21.0665 -20.799
rfingers 7.12502
rthumb 5.3101 309.288
lclavicle 4.27387e-015 2.78299e-015
lhumerus -32.4856 17.8067 76.8553
lradius 18.9075
lwrist 12.3129
lhand -18.1058 10.7518
lfingers 7.12502
lthumb 8.16822 40.574
rfemur -8.05754 3.33048 21.0768
rtibia 61.0074
rfoot -0.000368783 -11.6407
rtoes 3.01701
lfemur -5.675 19.5208 -22.2841
ltibia 24.4058
lfoot -2.55577 -10.7788
ltoes -18.5164
874
root 45.5894 16.7351 -5.47532 537.571 97.75 538.687
lowerback 0.12904 -0.109206 0.167418
upperback 0.604796 -0.134187 -1.26654
thorax 0.543094 -0.0602607 -1.39063
lowerneck -5.75256 0.462562 0.990507
upperneck 9.20183 0.431328 1.46645
head 4.03166 0.337219 0.337228
rclavicle -2.06472e-015 -4.77083e-015
rhumerus -31.8688 -6.95627 -87.2776
rradius 24.8965
rwrist 4.70376
rhand -21.1001 -20.2861
rfingers 7.12502
rthumb 5.27772 309.8
lclavicle -2.06472e-015 -4.77083e-015
lhumerus -32.0941 17.0801 77.3236
lradius 19.457
lwrist 12.8977
lhand -18.1796 10.799
lfingers 7.12502
lthumb 8.09696 40.6238
rfemur -9.19007 3.53131 20.9355
rtibia 61.1856
rfoot -1.69136 -10.9233
rtoes 2.18624
lfemur -5.33553 19.4118 -22.3892
ltibia 24.5813
lfoot -2.67083 -10.7778
ltoes -18.6163
875
root 45.699 16.7284 -5.47363 538.807 97.6144 539.934
lowerback 0.283561 -0.187348 -0.0983262
upperback 0.584896 -0.238742 -1.27976
thorax 0.434473 -0.113878 -1.2548
lowerneck -5.71644 0.467266 0.982005
upperneck 9.19568 0.438041 1.47997
head 4.02221 0.340766 0.343393
rclavicle 2.65533e-014 -2.78299e-015
rhumerus -31.9241 -6.95841 -87.2821
rradius 25.0605
rwrist 4.4896
rhand -21.1289 -19.7741
rfingers 7.12502
rthumb 5.24989 310.311
lclavicle 2.65533e-014 -2.78299e-015
lhumerus -31.7193 16.3425 77.7757
lradius 20.0521
lwrist 13.4742
lhand -18.2564 10.9138
lfingers 7.12502
lthumb 8.02287 40.7415
rfemur -10.3267 3.75645 20.8051
rtibia 61.2411
rfoot -3.36839 -10.3616
rtoes 1.51365
lfemur -5.00924 19.2945 -22.5005
ltibia 24.7408
lfoot -2.79944 -10.7508
ltoes -18.7553
876
root 45.8082 16.7211 -5.47181 539.974 97.4795 541.111
lowerback 0.42775 -0.260615 -0.340184
upperback 0.573281 -0.337562 -1.29121
thorax 0.341022 -0.164187 -1.1302
lowerneck -5.69317 0.469328 0.972535
upperneck 9.18785 0.44078 1.4955
head 4.01472 0.342387 0.350233
rclavicle -1.3491e-014 3.18055e-015
rhumerus -31.964 -6.96866 -87.2845
rradius 25.2197
rwrist 4.29118
rhand -21.1403 -19.2675
rfingers 7.12502
rthumb 5.23888 310.817
lclavicle -1.3491e-014 3.18055e-015
lhumerus -31.3309 15.617 78.2122
lradius 20.6587
lwrist 14.0246
lhand -18.3338 11.081
lfingers 7.12502
lthumb 7.94821 40.9116
rfemur -11.4448 4.00425 20.6939
rtibia 61.1741
rfoot -5.07289 -9.96729
rtoes 0.764239
lfemur -4.67789 19.1615 -22.6032
ltibia 24.8877
lfoot -2.94807 -10.692
ltoes -18.9167
877
root 45.9179 16.713 -5.47042 541.045 97.3437 542.195
lowerback 0.555807 -0.329899 -0.550224
upperback 0.575346 -0.431407 -1.30054
thorax 0.271256 -0.211647 -1.02105
lowerneck -5.68912 0.470022 0.966543
upperneck 9.18526 0.441155 1.50804
head 4.01297 0.3429 0.355455
rclavicle -2.1492e-014 -9.14409e-015
rhumerus -31.9883 -6.96795 -87.2905
rradius 25.3731
rwrist 4.09126
rhand -21.1395 -18.7668
rfingers 7.12502
rthumb 5.23962 311.318
lclavicle -2.1492e-014 -9.14409e-015
lhumerus -30.9237 14.9113 78.6338
lradius 21.2726
lwrist 14.5485
lhand -18.4073 11.2828
lfingers 7.12502
lthumb 7.87726 41.116
rfemur -12.5268 4.2658 20.5991
rtibia 60.986
rfoot -6.75112 -9.76516
rtoes 0.0457561
lfemur -4.32703 19.0105 -22.6933
ltibia 25.02
lfoot -3.11677 -10.6061
ltoes -19.0839
878
root 46.028 16.704 -5.46961 542.011 97.199 543.18
lowerback 0.663171 -0.396915 -0.726399
upperback 0.597733 -0.522051 -1.30712
thorax 0.234292 -0.257271 -0.928049
lowerneck -5.70036 0.470227 0.966349
upperneck 9.17581 0.440957 1.50974
head 4.01183 0.342717 0.356034
rclavicle -4.61243e-015 2.3059e-014
rhumerus -31.9832 -6.97007 -87.2914
rradius 25.5085
rwrist 3.92866
rhand -21.1211 -18.2749
rfingers 7.12502
rthumb 5.25743 311.81
lclavicle -4.61243e-015 2.3059e-014
lhumerus -30.4895 14.2289 79.0444
lradius 21.887
lwrist 15.0462
lhand -18.4745 11.4953
lfingers 7.12502
lthumb 7.81239 41.3309
rfemur -13.564 4.51982 20.5171
rtibia 60.6816
rfoot -8.36781 -9.75833
rtoes -0.596269
lfemur -3.95563 18.8392 -22.7688
ltibia 25.1426
lfoot -3.30319 -10.5008
ltoes -19.2493
879
root 46.1388 16.6938 -5.46941 542.959 97.0449 544.154
lowerback 0.756191 -0.461851 -0.880783
upperback 0.632407 -0.609714 -1.31379
thorax 0.218269 -0.301312 -0.847342
lowerneck -5.71665 0.4698 0.967158
upperneck 9.16115 0.439751 1.51085
head 4.00986 0.341974 0.356177
rclavicle -1.16817e-014 1.47101e-014
rhumerus -31.9655 -6.9637 -87.2886
rradius 25.6331
rwrist 3.79668
rhand -21.0929 -17.7946
rfingers 7.12502
rthumb 5.28465 312.291
lclavicle -1.16817e-014 1.47101e-014
lhumerus -30.0442 13.5843 79.4357
lradius 22.4943
lwrist 15.5048
lhand -18.5334 11.6576
lfingers 7.12502
lthumb 7.7555 41.4953
rfemur -14.5572 4.75429 20.4328
rtibia 60.2688
rfoot -9.9149 -9.91933
rtoes -1.14078
lfemur -3.56345 18.6612 -22.8393
ltibia 25.2551
lfoot -3.5082 -10.393
ltoes -19.4304
880
root 46.25 16.683 -5.4693 543.767 96.878 544.989
lowerback 0.840103 -0.525228 -1.00403
upperback 0.673818 -0.695149 -1.31569
thorax 0.214394 -0.344206 -0.779197
lowerneck -5.74221 0.465863 0.965468
upperneck 9.14691 0.433561 1.51495
head 4.00989 0.338834 0.35754
rclavicle 1.05014e-014 -7.95139e-015
rhumerus -31.9409 -6.94527 -87.2854
rradius 25.7432
rwrist 3.68253
rhand -21.059 -17.326
rfingers 7.12502
rthumb 5.31737 312.761
lclavicle 1.05014e-014 -7.95139e-015
lhumerus -29.5946 12.9603 79.811
lradius 23.0987
lwrist 15.9449
lhand -18.5883 11.7593
lfingers 7.12502
lthumb 7.70252 41.599
rfemur -15.5101 4.96136 20.3673
rtibia 59.7519
rfoot -11.3768 -10.2161
rtoes -1.682
lfemur -3.15989 18.4789 -22.8846
ltibia 25.3558
lfoot -3.71232 -10.2921
ltoes -19.5868
881
root 46.3617 16.6721 -5.46905 544.497 96.7064 545.743
lowerback 0.918605 -0.584384 -1.10722
upperback 0.715985 -0.77493 -1.31442
thorax 0.214486 -0.384267 -0.719008
lowerneck -5.76415 0.458267 0.956733
upperneck 9.12623 0.422564 1.52607
head 4.0069 0.333316 0.362178
rclavicle 1.02188e-015 2.38542e-015
rhumerus -31.9195 -6.91284 -87.2822
rradius 25.8403
rwrist 3.57748
rhand -21.0242 -16.8672
rfingers 7.12502
rthumb 5.35096 313.22
lclavicle 1.02188e-015 2.38542e-015
lhumerus -29.1495 12.3647 80.1653
lradius 23.688
lwrist 16.3634
lhand -18.6473 11.7298
lfingers 7.12502
lthumb 7.64563 41.5716
rfemur -16.4277 5.14956 20.3103
rtibia 59.1329
rfoot -12.7373 -10.5943
rtoes -2.26513
lfemur -2.74079 18.3094 -22.9121
ltibia 25.4332
lfoot -3.92897 -10.2059
ltoes -19.8668
882
root 46.4738 16.6621 -5.46813 545.11 96.5302 546.376
lowerback 0.993879 -0.64213 -1.19602
upperback 0.757656 -0.852876 -1.3071
thorax 0.216055 -0.423436 -0.660642
lowerneck -5.78886 0.451962 0.94796
upperneck 9.10388 0.412923 1.54077
head 4.00386 0.328621 0.36809
rclavicle 2.20527e-015 -3.97569e-016
rhumerus -31.8982 -6.8709 -87.2809
rradius 25.9235
rwrist 3.48698
rhand -20.988 -16.4151
rfingers 7.12502
rthumb 5.38591 313.673
lclavicle 2.20527e-015 -3.97569e-016
lhumerus -28.7145 11.7932 80.4999
lradius 24.2737
lwrist 16.7754
lhand -18.7116 11.6396
lfingers 7.12502
lthumb 7.58357 41.4837
rfemur -17.3113 5.3234 20.2681
rtibia 58.4095
rfoot -13.9709 -10.9949
rtoes -2.90259
lfemur -2.30259 18.1633 -22.9129
ltibia 25.4697
lfoot -4.13175 -10.1421
ltoes -20.1413
883
root 46.5863 16.6541 -5.46657 545.527 96.3454 546.801
lowerback 1.06847 -0.700331 -1.2611
upperback 0.793705 -0.931597 -1.29143
thorax 0.212272 -0.462984 -0.606863
lowerneck -5.81228 0.444477 0.935826
upperneck 9.07953 0.401754 1.5588
head 3.99986 0.323186 0.375602
rclavicle 3.10601e-017 1.19271e-014
rhumerus -31.8805 -6.81114 -87.2846
rradius 25.9934
rwrist 3.39447
rhand -20.9525 -15.9691
rfingers 7.12502
rthumb 5.42023 314.12
lclavicle 3.10601e-017 1.19271e-014
lhumerus -28.2945 11.2465 80.8129
lradius 24.8596
lwrist 17.1774
lhand -18.775 11.5214
lfingers 7.12502
lthumb 7.52233 41.3677
rfemur -18.1626 5.48445 20.2477
rtibia 57.575
rfoot -15.0364 -11.3723
rtoes -3.53641
lfemur -1.83735 18.0409 -22.8765
ltibia 25.4392
lfoot -4.30153 -10.1049
ltoes -20.3838
884
root 46.6994 16.6488 -5.46436 545.791 96.1536 547.068
lowerback 1.14289 -0.756146 -1.30888
upperback 0.825944 -1.00724 -1.26984
thorax 0.204709 -0.500979 -0.556591
lowerneck -5.82328 0.438124 0.932273
upperneck 9.04161 0.392479 1.56772
head 3.98856 0.318363 0.378522
rclavicle -1.55797e-014 2.78299e-015
rhumerus -31.8651 -6.76169 -87.2811
rradius 26.0462
rwrist 3.32906
rhand -20.9164 -15.5287
rfingers 7.12502
rthumb 5.45509 314.562
lclavicle -1.55797e-014 2.78299e-015
lhumerus -27.8867 10.7197 81.1091
lradius 25.4376
lwrist 17.5661
lhand -18.8294 11.4201
lfingers 7.12502
lthumb 7.46986 41.2682
rfemur -18.9692 5.63753 20.2386
rtibia 56.6283
rfoot -15.9206 -11.68
rtoes -4.04352
lfemur -1.32627 17.9367 -22.8098
ltibia 25.3173
lfoot -4.42779 -10.0907
ltoes -20.5734
885
root 46.8131 16.6469 -5.46159 545.9 95.9538 547.168
lowerback 1.22178 -0.810015 -1.34001
upperback 0.84866 -1.08061 -1.24212
thorax 0.184882 -0.537788 -0.509121
lowerneck -5.83014 0.431907 0.925928
upperneck 9.00262 0.383226 1.58266
head 3.97606 0.313728 0.383913
rclavicle -3.85145e-015 -1.11319e-014
rhumerus -31.8613 -6.72044 -87.27
rradius 26.0893
rwrist 3.28121
rhand -20.8796 -15.0935
rfingers 7.12502
rthumb 5.49058 314.998
lclavicle -3.85145e-015 -1.11319e-014
lhumerus -27.4977 10.2146 81.389
lradius 26.0128
lwrist 17.935
lhand -18.8643 11.3663
lfingers 7.12502
lthumb 7.43617 41.2156
rfemur -19.7338 5.78139 20.2397
rtibia 55.5724
rfoot -16.6164 -11.9029
rtoes -4.43459
lfemur -0.768395 17.8489 -22.7165
ltibia 25.0864
lfoot -4.50251 -10.0972
ltoes -20.7115
